# xmcd
#
# Track frame offsets:
#	150
#	18575
#	34429
#	49925
#	67002
#	83224
#	98004
#	115806
#	133403
#	150846
#	167604
#	184422
#	200495
#	217572
#
# Disc length: 3241 seconds
#
# Revision: 2
# Processed by: cddbd v1.5.2PL0 Copyright (c) Steve Scherf et al.
# Submitted via: EasyCDDAExtractor 10.0.5.1
#
DISCID=bf0ca70e
DTITLE=Scatman John - Everybody Jam!
DYEAR=1996
DGENRE=Rap
TTITLE0=Stop the Rain
TTITLE1=Everybody Jam!
TTITLE2=The Invisible Man
TTITLE3=Let it go
TTITLE4=Message to you
TTITLE5=(I want to) be Someone
TTITLE6=ScatMusic
TTITLE7=Shut Your Mouth and Open Your Mind
TTITLE8=(We got to Learn to) Live Together
TTITLE9=Ballad to Love
TTITLE10=People of the Generation
TTITLE11=Lebanon
TTITLE12=U-Turn
TTITLE13=Evebory Jam! (Club Jam)
EXTD=
EXTT0=
EXTT1=
EXTT2=
EXTT3=
EXTT4=
EXTT5=
EXTT6=
EXTT7=
EXTT8=
EXTT9=
EXTT10=
EXTT11=
EXTT12=
EXTT13=
PLAYORDER=
